HIERARCHY
ROOT joint_0
{
	OFFSET 0.000000 0.000000 0.000000
	CHANNELS 6 Xposition Yposition Zposition Zrotation Yrotation Xrotation 
	JOINT joint_1
	{
		OFFSET 3.886261 -0.864090 119.041016
		CHANNELS 3 Zrotation Yrotation Xrotation
		JOINT joint_2
		{
			OFFSET -8.814819 -1.400200 108.366943
			CHANNELS 3 Zrotation Yrotation Xrotation
			JOINT joint_3
			{
				OFFSET -10.127777 -1.846550 108.123047
				CHANNELS 3 Zrotation Yrotation Xrotation
				JOINT joint_4
				{
					OFFSET -0.104309 -2.852760 150.227051
					CHANNELS 3 Zrotation Yrotation Xrotation
					JOINT joint_5
					{
						OFFSET 20.206146 2.292160 92.163940
						CHANNELS 3 Zrotation Yrotation Xrotation
						End Site
						{
							OFFSET 0.000000 0.000000 0.000000
						}
					}
				}
				JOINT joint_6
				{
					OFFSET 0.345886 -34.260384 83.589966
					CHANNELS 3 Zrotation Yrotation Xrotation
					JOINT joint_7
					{
						OFFSET -3.824402 -146.174217 -19.015991
						CHANNELS 3 Zrotation Yrotation Xrotation
						JOINT joint_8
						{
							OFFSET 134.098145 -24.802032 -261.230957
							CHANNELS 3 Zrotation Yrotation Xrotation
							JOINT joint_9
							{
								OFFSET 123.899048 209.340523 59.187012
								CHANNELS 3 Zrotation Yrotation Xrotation
								End Site
								{
									OFFSET 0.000000 0.000000 0.000000
								}
							}
						}
					}
				}
				JOINT joint_10
				{
					OFFSET -0.423798 31.098438 84.831055
					CHANNELS 3 Zrotation Yrotation Xrotation
					JOINT joint_11
					{
						OFFSET 3.093201 146.891491 -12.504028
						CHANNELS 3 Zrotation Yrotation Xrotation
						JOINT joint_12
						{
							OFFSET 195.631927 -20.967743 -219.380981
							CHANNELS 3 Zrotation Yrotation Xrotation
							JOINT joint_13
							{
								OFFSET -8.651001 -247.511261 -36.616089
								CHANNELS 3 Zrotation Yrotation Xrotation
								End Site
								{
									OFFSET 0.000000 0.000000 0.000000
								}
							}
						}
					}
				}
			}
		}
	}
	JOINT joint_14
	{
		OFFSET 6.948090 -87.642914 -106.942017
		CHANNELS 3 Zrotation Yrotation Xrotation
		JOINT joint_15
		{
			OFFSET -34.394226 4.543823 -458.972961
			CHANNELS 3 Zrotation Yrotation Xrotation
			JOINT joint_16
			{
				OFFSET -17.051544 6.964645 -485.636009
				CHANNELS 3 Zrotation Yrotation Xrotation
				JOINT joint_17
				{
					OFFSET 190.520630 40.462875 -83.888000
					CHANNELS 3 Zrotation Yrotation Xrotation
					End Site
					{
						OFFSET 0.000000 0.000000 0.000000
					}
				}
			}
		}
	}
	JOINT joint_18
	{
		OFFSET 3.929901 87.535423 -107.188965
		CHANNELS 3 Zrotation Yrotation Xrotation
		JOINT joint_19
		{
			OFFSET -34.463440 -10.383845 -458.873047
			CHANNELS 3 Zrotation Yrotation Xrotation
			JOINT joint_20
			{
				OFFSET 14.641205 -11.071349 -485.637978
				CHANNELS 3 Zrotation Yrotation Xrotation
				JOINT joint_21
				{
					OFFSET 194.569275 -4.161928 -84.249998
					CHANNELS 3 Zrotation Yrotation Xrotation
					End Site
					{
						OFFSET 0.000000 0.000000 0.000000
					}
				}
			}
		}
	}
}
MOTION
Frames: 12
Frame Time: 0.016667
1106.178711 -100.583321 1151.963989 -0.151587 -3.898059 -0.124662 -0.124706 -4.534568 0.616549 -0.278542 0.591299 -0.148371 -0.288786 -0.998810 0.139656 -0.817522 13.270138 2.170120 0.000000 0.000000 0.000000 -1.381783 2.902903 2.976596 15.782749 0.226107 -10.417944 9.918118 8.902602 -19.580858 0.000000 0.000000 0.000000 7.838512 3.898162 -1.361097 4.493779 3.491733 5.021915 -3.843716 0.773572 -4.624334 0.000000 0.000000 0.000000 0.344944 -6.069285 -0.283510 0.366717 16.056140 0.551953 0.020268 -5.190118 1.111211 0.000000 0.000000 0.000000 -5.639768 -7.948622 4.880025 -5.926050 20.647600 -3.016930 -6.848491 -8.107959 -3.038369 0.000000 0.000000 0.000000 
1105.445557 -100.824234 1152.123047 -0.001365 -3.756294 -0.092120 -0.159463 -4.512565 0.614604 -0.306070 0.591486 -0.148140 -0.315748 -0.990953 0.140573 -0.818728 13.294689 2.170375 0.000000 0.000000 0.000000 -1.444545 2.890520 3.018537 15.856191 0.197291 -10.359147 9.925341 8.912089 -19.634160 0.000000 0.000000 0.000000 7.827774 3.901146 -1.385050 4.501524 3.492253 5.016559 -3.806842 0.765314 -4.603151 0.000000 0.000000 0.000000 0.301858 -6.185304 -0.324471 0.322920 15.919984 0.555424 -0.012365 -5.109298 1.079871 0.000000 0.000000 0.000000 -5.706578 -7.995196 4.846985 -5.988901 20.310156 -2.953494 -6.871689 -7.916077 -3.047654 0.000000 0.000000 0.000000 
1104.665161 -100.988457 1152.271973 0.154878 -3.633264 -0.058536 -0.188909 -4.470027 0.616363 -0.328486 0.587721 -0.144280 -0.338161 -0.979338 0.138289 -0.820532 13.305271 2.169367 0.000000 0.000000 0.000000 -1.446777 2.880653 3.089262 15.869478 0.191567 -10.321511 9.895684 8.919509 -19.670616 0.000000 0.000000 0.000000 7.820212 3.896202 -1.417524 4.504108 3.483888 5.019230 -3.773764 0.757436 -4.571511 0.000000 0.000000 0.000000 0.257210 -6.285854 -0.364981 0.278441 15.789099 0.547365 -0.046315 -5.030155 1.048326 0.000000 0.000000 0.000000 -5.769833 -8.043000 4.798590 -6.051397 20.008765 -2.878013 -6.898806 -7.738447 -3.058609 0.000000 0.000000 0.000000 
1103.853516 -101.078880 1152.406982 0.315460 -3.527642 -0.025790 -0.212570 -4.414320 0.625016 -0.345717 0.584694 -0.139616 -0.355602 -0.966564 0.135122 -0.821880 13.302124 2.162602 0.000000 0.000000 0.000000 -1.406911 2.872367 3.182658 15.839221 0.202157 -10.300662 9.839889 8.925833 -19.695206 0.000000 0.000000 0.000000 7.809186 3.886849 -1.456953 4.507916 3.471358 5.029110 -3.740733 0.749565 -4.533659 0.000000 0.000000 0.000000 0.212107 -6.368682 -0.406101 0.233898 15.658051 0.533708 -0.080625 -4.951941 1.016822 0.000000 0.000000 0.000000 -5.830909 -8.085312 4.740128 -6.113377 19.730218 -2.795010 -6.928193 -7.571638 -3.070564 0.000000 0.000000 0.000000 
1103.168091 -101.131454 1152.564941 0.481785 -3.408730 0.024525 -0.237150 -4.388658 0.615105 -0.364333 0.580087 -0.139898 -0.373562 -0.958052 0.135688 -0.826680 13.306445 2.169082 0.000000 0.000000 0.000000 -1.393892 2.872892 3.287396 15.823549 0.214149 -10.276017 9.790294 8.937983 -19.731577 0.000000 0.000000 0.000000 7.818334 3.880218 -1.520063 4.515111 3.458902 5.072214 -3.731749 0.745340 -4.493329 0.000000 0.000000 0.000000 0.167398 -6.455750 -0.468868 0.187707 15.521688 0.519929 -0.116609 -4.872466 0.984311 0.000000 0.000000 0.000000 -5.889440 -8.143888 4.663723 -6.175524 19.460951 -2.718258 -6.959127 -7.407158 -3.083137 0.000000 0.000000 0.000000 
1102.600342 -101.123550 1152.746948 0.720618 -3.231853 0.129279 -0.285149 -4.442825 0.540498 -0.405344 0.574961 -0.150357 -0.412369 -0.960865 0.143203 -0.840770 13.336115 2.213253 0.000000 0.000000 0.000000 -1.463396 2.889630 3.403627 15.871140 0.217475 -10.235652 9.776994 8.959751 -19.799244 0.000000 0.000000 0.000000 7.864966 3.881417 -1.621751 4.525324 3.449053 5.172127 -3.773615 0.748892 -4.457146 0.000000 0.000000 0.000000 0.105745 -6.591871 -0.600603 0.118356 15.382017 0.507519 -0.173935 -4.795523 0.943075 0.000000 0.000000 0.000000 -5.958424 -8.294136 4.531334 -6.257714 19.219002 -2.657131 -7.010839 -7.233667 -3.104127 0.000000 0.000000 0.000000 
1102.086548 -101.043579 1152.938965 1.033520 -3.009182 0.283149 -0.354096 -4.559566 0.408032 -0.465849 0.567948 -0.167394 -0.469575 -0.969663 0.155864 -0.863043 13.382184 2.289061 0.000000 0.000000 0.000000 -1.591428 2.919149 3.536695 15.960390 0.216940 -10.188798 9.788669 8.988419 -19.889494 0.000000 0.000000 0.000000 7.939124 3.886171 -1.756499 4.537252 3.438735 5.319759 -3.857925 0.758925 -4.423088 0.000000 0.000000 0.000000 0.026415 -6.768748 -0.794743 0.026166 15.241488 0.494340 -0.252405 -4.722341 0.893463 0.000000 0.000000 0.000000 -6.038561 -8.527712 4.344883 -6.360232 19.008861 -2.607396 -7.084206 -7.052958 -3.133898 0.000000 0.000000 0.000000 
1102.148071 -101.088097 1153.248047 1.119651 -2.849739 0.370940 -0.361687 -4.652896 0.359009 -0.469619 0.567773 -0.187231 -0.469955 -0.984600 0.168585 -0.877649 13.422248 2.337361 0.000000 0.000000 0.000000 -1.732071 2.955243 3.655369 16.039943 0.220083 -10.125602 9.782241 9.026349 -19.983021 0.000000 0.000000 0.000000 8.024539 3.897805 -1.903367 4.565333 3.435532 5.486224 -3.932098 0.767306 -4.377100 0.000000 0.000000 0.000000 0.011295 -6.850104 -0.895630 0.005158 15.074415 0.488322 -0.265559 -4.624549 0.866876 0.000000 0.000000 0.000000 -6.066903 -8.571940 4.254221 -6.392322 18.713401 -2.563947 -7.087348 -6.894321 -3.134914 0.000000 0.000000 0.000000 
1103.025269 -101.418800 1153.767944 0.681551 -2.840092 0.281048 -0.217898 -4.646420 0.528454 -0.333256 0.579478 -0.202971 -0.331392 -1.005400 0.175827 -0.872489 13.449290 2.310035 0.000000 0.000000 0.000000 -1.869104 3.001736 3.744031 16.071278 0.237677 -10.022091 9.714617 9.078047 -20.070463 0.000000 0.000000 0.000000 8.118851 3.918951 -2.070697 4.628107 3.443157 5.682181 -3.968430 0.769210 -4.298795 0.000000 0.000000 0.000000 0.142838 -6.754837 -0.755457 0.148328 14.884065 0.496842 -0.127496 -4.475387 0.894861 0.000000 0.000000 0.000000 -5.979884 -8.214123 4.413727 -6.265879 18.246757 -2.541106 -6.933300 -6.778699 -3.070998 0.000000 0.000000 0.000000 
1104.515747 -101.959381 1154.456055 -0.168104 -2.944172 0.054884 0.046900 -4.570365 0.871275 -0.087164 0.602568 -0.220734 -0.083424 -1.032118 0.180271 -0.852369 13.469385 2.224723 0.000000 0.000000 0.000000 -2.015498 3.061016 3.812010 16.073268 0.267140 -9.879916 9.600733 9.142425 -20.158599 0.000000 0.000000 0.000000 8.232393 3.948613 -2.265357 4.719380 3.458435 5.917234 -3.986521 0.767662 -4.193698 0.000000 0.000000 0.000000 0.390838 -6.531018 -0.433201 0.420583 14.680686 0.519252 0.130653 -4.284120 0.965999 0.000000 0.000000 0.000000 -5.798019 -7.551703 4.763155 -6.013751 17.652245 -2.538649 -6.654138 -6.688028 -2.954741 0.000000 0.000000 0.000000 
1107.102539 -102.587273 1155.223999 -0.990995 -3.087118 -0.152134 0.280616 -4.512651 1.185167 0.126972 0.625296 -0.243141 0.133366 -1.056396 0.187260 -0.827916 13.455693 2.138907 0.000000 0.000000 0.000000 -2.142902 3.097504 3.841942 16.073243 0.277094 -9.783000 9.515582 9.204857 -20.231341 0.000000 0.000000 0.000000 8.310467 3.980215 -2.399904 4.799041 3.482552 6.067622 -3.961885 0.760986 -4.109435 0.000000 0.000000 0.000000 0.630474 -6.146897 -0.134626 0.682357 14.373905 0.549419 0.382174 -4.080214 1.031751 0.000000 0.000000 0.000000 -5.617593 -6.734767 5.040952 -5.765082 16.960301 -2.459749 -6.366825 -6.599694 -2.835826 0.000000 0.000000 0.000000 
1111.311157 -103.189003 1156.088013 -1.508168 -3.221603 -0.221419 0.375859 -4.551511 1.318758 0.214431 0.639053 -0.266427 0.224908 -1.071679 0.203182 -0.805335 13.381867 2.090030 0.000000 0.000000 0.000000 -2.246368 3.083001 3.809655 16.101614 0.237860 -9.794734 9.525190 9.255724 -20.277441 0.000000 0.000000 0.000000 8.323908 4.021986 -2.405244 4.842551 3.529950 6.028017 -3.854856 0.744731 -4.077435 0.000000 0.000000 0.000000 0.784265 -5.535163 -0.020283 0.845760 13.844224 0.590109 0.549726 -3.855873 1.056952 0.000000 0.000000 0.000000 -5.507351 -5.729288 5.028912 -5.603393 15.971555 -2.170582 -6.129505 -6.436028 -2.739561 0.000000 0.000000 0.000000 
